<?xml version="1.0" standalone="no"?>
<!DOCTYPE svg PUBLIC "-//W3C//DTD SVG 20010904//EN"
 "http://www.w3.org/TR/2001/REC-SVG-20010904/DTD/svg10.dtd">
<svg version="1.0" xmlns="http://www.w3.org/2000/svg"
 width="288.000000pt" height="198.000000pt" viewBox="0 0 288.000000 198.000000"
 preserveAspectRatio="xMidYMid meet">

<g transform="translate(0.000000,198.000000) scale(0.100000,-0.100000)"
fill="#1d5bcd" stroke="none">
<path d="M360 1881 c0 -4 -11 -7 -25 -6 -14 2 -34 -6 -50 -21 -14 -13 -30 -24
-35 -24 -13 0 -67 -81 -90 -135 -11 -25 -22 -67 -26 -93 -3 -26 -8 -50 -11
-54 -13 -22 -2 -268 17 -388 6 -36 15 -90 19 -120 5 -30 19 -95 30 -145 11
-49 27 -121 35 -160 42 -195 48 -212 72 -212 13 0 24 7 26 16 4 17 -10 90 -35
181 -29 107 -77 366 -93 505 -9 70 -5 275 6 333 40 220 178 290 410 208 41
-15 80 -28 87 -28 7 -1 14 -7 17 -15 3 -7 14 -13 24 -13 11 0 25 -6 31 -14 7
-8 26 -18 43 -21 16 -4 38 -15 48 -25 10 -10 50 -37 89 -60 61 -37 72 -40 85
-27 24 24 24 52 -1 55 -12 2 -25 11 -28 21 -6 21 -119 91 -147 91 -10 0 -21 6
-24 14 -3 8 -19 18 -35 21 -16 4 -29 11 -29 16 0 5 -9 9 -20 9 -11 0 -20 5
-20 10 0 6 -8 10 -17 10 -10 0 -27 7 -37 15 -10 8 -23 12 -27 9 -5 -3 -9 -2
-9 3 0 10 -52 33 -88 39 -58 10 -192 13 -192 5z"/>
<path d="M396 1425 c-39 -36 -36 -87 9 -132 l34 -34 -46 -44 c-39 -38 -45 -48
-39 -72 17 -70 92 -123 177 -126 51 -2 52 -2 68 -47 9 -25 22 -45 29 -44 7 1
21 2 33 3 19 1 19 3 -8 51 -24 42 -26 53 -15 70 19 31 15 47 -22 75 -38 29
-66 25 -66 -9 0 -31 -19 -46 -55 -46 -80 0 -73 85 11 128 12 7 57 8 117 5 l97
-6 0 -81 1 -81 35 -22 c20 -13 40 -23 45 -23 5 0 9 81 9 195 l0 195 40 0 40 0
1 -62 c0 -97 15 -127 79 -165 37 -23 66 -33 95 -33 78 1 104 47 105 188 l0 72
45 0 45 0 0 -172 1 -173 35 -22 c20 -13 40 -23 45 -23 5 0 9 81 9 195 l0 195
75 0 76 0 -3 -67 -3 -68 -32 -3 c-55 -5 -52 -33 10 -115 31 -40 70 -89 89
-110 30 -35 35 -37 53 -24 18 14 17 17 -33 72 -29 31 -52 64 -52 73 0 9 12 25
25 35 23 17 28 17 70 2 26 -8 57 -12 71 -9 24 6 24 5 24 -60 0 -64 1 -66 37
-91 21 -14 41 -25 45 -25 5 0 8 88 8 195 l0 195 35 0 c30 0 35 3 35 23 0 13
-5 28 -12 35 -9 9 -162 12 -626 12 l-615 0 25 -32 c14 -18 35 -34 47 -36 18
-3 21 -10 21 -53 0 -54 -5 -59 -84 -73 -35 -7 -38 -6 -31 11 5 10 10 34 12 54
12 94 -149 171 -221 104z m150 -59 c11 -46 -41 -101 -72 -75 -17 14 -19 70 -2
87 7 7 25 12 40 12 21 0 29 -6 34 -24z m532 -70 c-5 -91 -16 -116 -54 -116
-34 0 -44 28 -44 119 l0 81 51 0 52 0 -5 -84z m642 19 c0 -75 -13 -88 -83 -83
l-42 3 -3 73 -3 72 66 0 65 0 0 -65z"/>
<path d="M1872 874 c-31 -21 -27 -45 11 -74 78 -60 341 -313 421 -404 52 -59
62 -67 85 -61 14 4 29 12 33 18 12 19 9 37 -5 37 -8 0 -20 11 -27 25 -7 14
-17 25 -22 25 -4 0 -30 21 -58 48 -27 26 -84 79 -127 117 -91 83 -195 187
-242 244 -38 47 -39 47 -69 25z"/>
</g>
</svg>
