<?xml version="1.0" standalone="no"?>
<!DOCTYPE svg PUBLIC "-//W3C//DTD SVG 20010904//EN"
 "http://www.w3.org/TR/2001/REC-SVG-20010904/DTD/svg10.dtd">
<svg version="1.0" xmlns="http://www.w3.org/2000/svg"
 width="288.000000pt" height="198.000000pt" viewBox="0 0 288.000000 198.000000"
 preserveAspectRatio="xMidYMid meet">

<g transform="translate(0.000000,198.000000) scale(0.100000,-0.100000)"
fill="#c3ad6f" stroke="none">
<path d="M360 1881 c0 -4 -11 -7 -25 -6 -14 2 -34 -6 -50 -21 -14 -13 -30 -24
-35 -24 -13 0 -67 -81 -90 -135 -11 -25 -22 -67 -26 -93 -3 -26 -8 -50 -11
-54 -13 -22 -2 -268 17 -388 6 -36 15 -90 19 -120 5 -30 19 -95 30 -145 11
-49 27 -121 35 -160 42 -195 48 -212 72 -212 13 0 24 7 26 16 4 17 -10 90 -35
181 -29 107 -77 366 -93 505 -9 70 -5 275 6 333 40 220 178 290 410 208 41
-15 80 -28 87 -28 7 -1 14 -7 17 -15 3 -7 14 -13 24 -13 11 0 25 -7 32 -15 7
-8 27 -17 46 -21 19 -3 34 -10 34 -14 0 -5 29 -27 65 -49 73 -47 129 -55 138
-22 6 23 0 31 -24 31 -10 0 -20 8 -24 19 -6 21 -119 91 -147 91 -10 0 -21 6
-24 14 -3 8 -19 18 -35 21 -16 4 -29 11 -29 16 0 5 -9 9 -20 9 -11 0 -20 5
-20 10 0 6 -8 10 -17 10 -10 0 -27 7 -37 15 -10 8 -23 12 -27 9 -5 -3 -9 -2
-9 3 0 10 -52 33 -88 39 -58 10 -192 13 -192 5z"/>
<path d="M369 1459 c-62 -23 -67 -109 -11 -160 l29 -26 -39 -32 c-46 -39 -56
-72 -35 -117 24 -50 86 -86 159 -93 l60 -6 17 -45 c14 -39 20 -45 41 -42 14 2
27 6 29 8 2 2 -7 25 -21 51 -20 39 -23 53 -15 74 12 33 5 53 -27 74 -34 23
-68 12 -60 -19 4 -17 -1 -25 -21 -34 -35 -16 -49 -15 -75 6 -34 28 -20 66 36
102 38 24 50 27 77 19 18 -5 60 -9 94 -9 l63 0 0 -80 0 -79 38 -26 37 -25 5
197 5 198 43 3 42 3 0 -71 c0 -89 17 -127 72 -163 52 -34 99 -43 139 -27 44
19 53 44 59 155 l5 100 43 3 42 3 0 -168 c0 -92 4 -172 8 -178 8 -12 69 -55
76 -55 3 0 7 89 8 198 l3 197 53 3 53 3 -7 -36 c-4 -25 -1 -42 10 -60 17 -25
84 -65 110 -65 29 0 26 -19 -5 -36 -22 -11 -45 -14 -74 -11 -42 6 -65 -4 -65
-29 0 -6 45 -48 100 -93 90 -73 102 -80 120 -69 11 7 20 16 20 19 0 3 -28 26
-62 49 l-61 44 35 12 c56 19 87 43 113 89 30 51 32 99 5 143 -11 18 -20 35
-20 37 0 3 25 5 55 5 l55 0 0 -175 0 -174 38 -26 37 -25 5 197 5 198 47 5 48
5 -26 33 -25 32 -645 0 -645 0 26 -34 c15 -19 36 -36 48 -38 19 -3 22 -10 25
-54 l3 -51 -39 -11 c-22 -7 -52 -12 -67 -12 -23 0 -25 2 -15 15 6 8 12 30 13
50 2 85 -110 157 -194 124z m115 -65 c22 -22 20 -41 -9 -69 -29 -30 -51 -32
-65 -6 -16 31 -12 59 12 75 28 20 43 20 62 0z m536 -81 c0 -90 -13 -123 -50
-123 -32 0 -40 22 -40 117 l0 93 45 0 45 0 0 -87z m547 75 c29 -37 23 -118 -8
-118 -51 0 -90 77 -59 115 15 18 54 20 67 3z"/>
<path d="M1962 1347 l-32 -33 35 -34 35 -34 35 34 35 34 -32 33 c-18 18 -35
33 -38 33 -3 0 -20 -15 -38 -33z"/>
<path d="M1962 1117 l-32 -33 35 -34 35 -34 35 34 35 34 -32 33 c-18 18 -35
33 -38 33 -3 0 -20 -15 -38 -33z"/>
<path d="M1872 874 c-31 -21 -27 -45 11 -74 78 -60 341 -313 421 -404 52 -59
62 -67 85 -61 14 4 29 12 33 18 12 19 9 37 -5 37 -8 0 -20 11 -27 25 -7 14
-17 25 -22 25 -4 0 -30 21 -58 48 -27 26 -84 79 -127 117 -91 83 -195 187
-242 244 -38 47 -39 47 -69 25z"/>
</g>
</svg>
